<svg xmlns="http://www.w3.org/2000/svg" version="1.1" xmlns:xlink="http://www.w3.org/1999/xlink" width="512" height="512" x="0" y="0" viewBox="0 0 100 100" style="enable-background:new 0 0 512 512" xml:space="preserve"><g><path d="M85.049 62.636c-3.766-7.187-5.675-14.915-5.675-22.969v-3.376c0-13.952-13.179-25.303-29.375-25.303-16.197 0-29.375 11.351-29.375 25.303v3.376c0 8.058-1.909 15.786-5.675 22.969-1.808 3.449-1.587 8.188.108 11.823 2.017 4.329 4.15 7.938 6.521 11.032 2.831 3.692 7.272 4.067 10.188 2.931 11.891-4.628 24.582-4.626 36.466 0 4.228 1.646 8.15-.271 10.188-2.931 2.369-3.091 4.503-6.699 6.521-11.032 1.733-3.72 2.051-8.122.108-11.823zM72.507 51.934c.459 2.39 4.228 3.66 4.312 4.795.152 2.094-2.742 7.414-6.334 11.4-3.605 4.002-3.732 3.246-7.602.195-10.763-8.49-15.153-8.374-25.768 0-4.156 3.275-3.946 3.861-7.601-.195-3.592-3.986-6.469-9.307-6.333-11.398.069-1.063 3.97-2.627 4.312-4.797.351-2.229-2.43-5.059-2.636-9.246.085-.015.168-.032.253-.046.987 8.67 5.724 10.4 12.988 4.978-2.213 1.762-2.334 1.972-5.209 3.366-3.667 1.778-6.211 3.347-6.696 5.097-.956 3.45 4.599 12.284 8.683 12.284 1.546 0 3.376-1.53 5.692-3.469 8.198-6.859 10.255-7.203 18.868 0 2.314 1.938 4.145 3.469 5.69 3.469 3.862 0 9.692-8.639 8.683-12.284-.483-1.75-3.08-3.216-6.695-5.097-2.806-1.457-3.53-2.029-5.217-3.372 9.916 7.241 12.437.219 12.994-4.972l.252.045c-.205 4.438-3.065 7.017-2.636 9.247zm.384-9.602c-.703 9.043-5.89 6.307-7.983 4.868-2.518-1.73-9.032-6.047-13.992-6.555 7.551.043 14.915.61 21.975 1.687zM60.62 49.156c1.093.87 2.073 1.564 2.759 2.068 1.137.838 8.168 3.899 8.5 5.392.532 2.389-4.177 9.751-6.755 9.751-.819 0-2.728-1.596-4.408-3.003-9.254-7.74-12.39-7.565-21.434 0-1.682 1.407-3.588 3.003-4.408 3.003-2.626 0-7.401-7.273-6.755-9.751.459-1.761 6.865-4.179 8.5-5.392.683-.506 1.666-1.199 2.758-2.068 9.879-7.867 11.553-7.721 21.243 0zM35.093 47.2c-3.342 2.066-7.218 3.425-7.986-4.868 7.061-1.077 14.424-1.645 21.977-1.687-4.959.508-11.376 4.938-13.991 6.555zm-12.51-6.134c.007-.281.022-.56.025-.841 17.184-3.257 39.06-2.663 54.783 0 .004.281.019.561.025.841-17.971-3.317-37.54-3.192-54.833 0zm27.416-28.078c15.095 0 27.375 10.454 27.375 23.36 0 .157-.017 1.385-.011 1.845-18.209-3.064-37.772-2.853-54.729 0 .005-.46-.01-1.727-.01-1.903 0-12.848 12.28-23.302 27.375-23.302zM16.721 63.563c3.377-6.44 5.311-13.308 5.782-20.451.127-.024.255-.046.382-.069.443 4.503 2.834 7.425 2.64 8.535-.248 1.416-4.025 2.484-4.333 4.943-.438 3.489 4 9.797 6.836 12.945 4.695 5.21 5.72 4.059 10.326.428 10.108-7.976 13.619-7.629 23.291 0 4.711 3.717 5.705 4.699 10.326-.428 2.836-3.148 7.207-9.447 6.836-12.945-.246-2.324-3.916-3.471-4.33-4.943-.31-1.099 2.045-3.474 2.637-8.535.128.023.257.045.384.069.471 7.141 2.403 14.007 5.78 20.453 1.25 2.379 1.156 4.617 1.01 6.008-1.799 4.156-7.498 11.99-9.631 11.99-.463 0-.946-.066-1.448-.166.136-.383.224-.789.224-1.22 0-2.03-1.65-3.682-3.682-3.682-1.352 0-2.521.739-3.162 1.827-.676-.422-1.354-.852-2.048-1.299-12.354-7.948-16.64-8.006-29.082.002-3.623 2.332-7.045 4.535-10.115 4.535-2.133 0-7.833-7.832-9.629-11.988-.22-2.038-.002-4.086 1.006-6.009zm53.028 19.296a2.686 2.686 0 0 1-2.683-2.683c0-1.479 1.203-2.682 2.683-2.682s2.683 1.203 2.683 2.682a2.685 2.685 0 0 1-2.683 2.683zm7.083 1.414c-2.377 3.104-5.832 3.08-7.875 2.285-12.117-4.72-25.218-4.942-37.917 0-2.773 1.078-5.906.282-7.875-2.285-2.166-2.826-4.13-6.119-5.997-10.035 2.566 4.062 6.152 8.324 8.174 8.324 3.364 0 6.906-2.28 10.656-4.694 11.939-7.685 16.016-7.716 28-.002.746.479 1.477.944 2.199 1.394-.076.295-.131.6-.131.918a3.686 3.686 0 0 0 3.683 3.682 3.67 3.67 0 0 0 2.983-1.541c.668.152 1.308.244 1.922.244 2.021 0 5.609-4.264 8.176-8.324-1.868 3.917-3.833 7.212-5.998 10.034z" fill="#eee" opacity="1"></path><path d="m74.497 69.26 2.094.975c.565.281 1.023-.626.423-.905l-2.095-.976c-.574-.273-1 .639-.422.906zM76.103 67.047l2.094.975c.565.281 1.023-.626.423-.905l-2.095-.976c-.575-.273-1.001.639-.422.906zM77.716 64.838l2.094.975c.565.281 1.023-.626.423-.905l-2.095-.976c-.575-.273-1 .639-.422.906zM79.325 62.629l2.094.975c.565.281 1.023-.626.423-.905l-2.095-.976c-.574-.273-1 .639-.422.906zM23.409 70.234l2.092-.976c.594-.275.17-1.188-.422-.905l-2.092.975c-.636.293-.167 1.211.422.906zM21.808 68.02l2.092-.976c.594-.275.17-1.188-.422-.905l-2.092.975c-.637.292-.167 1.21.422.906zM20.196 65.811l2.092-.976c.594-.275.17-1.188-.422-.905l-2.092.975c-.636.292-.167 1.21.422.906zM18.585 63.602l2.092-.976c.594-.275.17-1.188-.422-.905l-2.092.975c-.636.292-.166 1.21.422.906z" fill="#eee" opacity="1"></path></g></svg>